<?xml version="1.0" encoding="UTF-8"?>
<!DOCTYPE svg PUBLIC "-//W3C//DTD SVG 1.1//EN" "http://www.w3.org/Graphics/SVG/1.1/DTD/svg11.dtd">
<!-- Creator: CorelDRAW 2021 (64-Bit) -->
<svg xmlns="http://www.w3.org/2000/svg" xml:space="preserve" width="97.5615mm" height="107.559mm" version="1.1" style="shape-rendering:geometricPrecision; text-rendering:geometricPrecision; image-rendering:optimizeQuality; fill-rule:evenodd; clip-rule:evenodd"
viewBox="0 0 1804.82 1989.77"
 xmlns:xlink="http://www.w3.org/1999/xlink"
 xmlns:xodm="http://www.corel.com/coreldraw/odm/2003">
 <defs>
  <style type="text/css">
   <![CDATA[
    .fil5 {fill:#0092ED}
    .fil0 {fill:#2563EB}
    .fil1 {fill:#9333EA}
    .fil2 {fill:#D1D5DB}
    .fil3 {fill:#FD7100}
    .fil4 {fill:#FEC100}
   ]]>
  </style>
 </defs>
 <g id="Layer_x0020_1">
  <metadata id="CorelCorpID_0Corel-Layer"/>
  <g id="_1837872383904">
   <path class="fil0" d="M1004.25 0.1c-73.72,-2.38 -206.34,39.02 -269.23,70.07l-115.59 74.39 -42.13 40.94c-4.18,4.73 -29.57,21.05 -51.36,55.55 -6.65,10.53 -10.3,14.17 -18.76,24.89 -14.01,17.77 -20.01,32.7 -33.1,54.26 -100.92,166.17 -93.28,369.27 -17.67,547.25 19.29,45.4 53.29,92.2 80.7,129.38 14.67,19.9 48.66,47.6 65.62,65.23 4.38,4.56 4.91,6.61 8.96,10.52l62.13 44.95c10.32,6.17 16.35,10.67 26.97,16.68 156.55,88.65 377.86,116.94 549.35,29.16 10.22,-5.23 16.26,-7.98 25.42,-14.34 22.8,-15.81 54.12,-31.93 45.86,-72.95 -11.58,-57.5 -53.25,-45.45 -96.29,-74.83 -74.44,-50.8 -74.73,-181.94 -13.02,-244.3 45.45,-45.93 137.99,-51.91 191.2,-20.47 30.57,18.07 75.89,93.23 179.53,47.27 38.15,-16.92 66.15,-44.05 76.85,-93.94 29.08,-135.59 -16.21,-294.58 -89.99,-408.74 -20.16,-31.19 -49.66,-70.5 -74.6,-95.82l-69.01 -57.7c-146.72,-102.65 -243.15,-121.67 -421.85,-127.46z"/>
   <path class="fil1" d="M217.32 675.98c10.69,55.82 32.24,122.28 47.58,177.63 16.68,60.19 33.59,119.65 49.14,180.44 31.04,121.39 66.68,238.96 98.73,360.33 15.42,58.37 31.1,123.55 48.64,180.92 44.93,146.94 213.09,113.33 345.13,113.33l684.61 0.02c33.85,-0.01 78.37,6.35 101.21,-13.13 26.23,-22.38 21.78,-58.46 -3.85,-76 -27.97,-19.14 -175.39,-9.16 -220.03,-9.19l-688.57 -0.03c-52.21,0.05 -141.67,11.67 -134.93,-94.2 172.8,7.1 360.17,0.34 534.62,0.47 88.38,0.06 176.76,-0.19 265.14,-0.06 64.56,0.1 207.86,11.65 255.32,-15.2 56.18,-31.79 63.18,-106.1 83.1,-181.92l109.75 -428.48c8.97,-34.48 21.33,-75.36 0.51,-105.44 -23.39,-33.79 -63.46,-22.91 -104.41,-13.91 -0.85,115.71 -144.73,157.85 -220.77,129.57 -41.28,-15.35 -100.7,-104.23 -195.21,-63.14 -30.28,13.16 -35.51,21.96 -54.97,39.98 4.37,119.46 164.32,43.76 181.87,198.11 26.23,230.64 -345.97,266.33 -512.96,236.06 -146.4,-26.54 -226.08,-76.03 -324.84,-154.06 -12.44,-9.83 -14.34,-10.09 -24.67,-22.89l-67.65 -74.84c-13.03,-16.67 -27.82,-37.46 -40.56,-58.28 -119.72,-195.52 -92.87,-376.3 -172.69,-401.02 -23.7,-7.34 -154.67,-3.45 -190.21,-3.51 -75.93,-0.13 -84.04,68.99 -37.82,92.82 22.89,11.8 152.22,4.63 188.79,5.61z"/>
   <path class="fil1" d="M641.11 1747.18c-61.45,10.86 -114.48,69.29 -98.28,146.36 12.28,58.41 70.99,109.08 145.97,93.32 157.25,-33.05 108.16,-267.21 -47.69,-239.67z"/>
   <path class="fil1" d="M1328.66 1746.76c-160.71,37.82 -111.72,267.32 47.95,239.16 57.86,-10.21 112.78,-70.23 96.26,-144.34 -12.43,-55.75 -71.85,-111.85 -144.21,-94.82z"/>
   <path class="fil2" d="M609.88 456.86c-76.92,13.01 -102.06,104.52 -65.4,152.99 25.29,33.43 58.93,50.42 103.7,41.8 128.12,-24.67 86.98,-215.98 -38.31,-194.79z"/>
   <path class="fil3" d="M1344.52 266.95c-128.43,32.07 -78.79,222.94 48.73,188.34 123.07,-33.39 76.82,-219.69 -48.73,-188.34z"/>
   <path class="fil4" d="M1076.8 120.91c-131.76,18.21 -97.5,206.79 24.25,188.55 125.28,-18.77 96.96,-205.31 -24.25,-188.55z"/>
   <path class="fil5" d="M739.62 207.67c-115.01,36.49 -63.19,204.42 55.88,171.73 54.6,-14.99 101.73,-106.07 19.39,-162.86 -21.22,-14.64 -49.98,-16.89 -75.27,-8.87z"/>
  </g>
 </g>
</svg>
